<svg width="26" height="26" viewBox="0 0 512 512" fill="none" xmlns="http://www.w3.org/2000/svg">
<g clip-path="url(#clip0_256_2202)">
<path fill-rule="evenodd" clip-rule="evenodd" d="M200.736 482.822C203.104 487.671 207.117 492.997 211.381 496.664C216.592 501.145 223.085 504.314 229.957 506.858C234.755 508.634 241.094 510.182 246.221 511.103C251.534 512.057 258.058 512.04 264.207 511.973C275.133 511.853 283.757 510.836 293.49 508.465C299.622 506.971 305.447 505.312 310.175 503.452C319.102 499.939 324.794 496.039 325.981 493.509C325.09 489.326 323.688 482.739 322.644 476.819C321.713 471.51 320.94 466.174 320.326 460.818C318.989 449.218 319.677 441.056 321.159 427.563C323.342 407.69 327.586 398.637 333.783 386.828C339.701 375.548 349.47 359.783 356.999 349.628C364.848 339.04 384.499 318.348 391.667 310.659C394.167 311.399 398.995 313.009 406.462 314.483C412.152 315.606 418.778 316.945 427.116 316.664C446.968 315.996 454.195 312.2 465.743 304.671C476.221 297.841 486.246 284.173 491.495 271.075C495.531 261.005 496.773 250.751 495.017 238.718C493.835 230.624 491.22 221.039 489.13 214.701C486.856 207.807 483.287 200.401 480.29 194.798C480.29 194.798 492.341 180.398 497.164 168.386C501.316 158.042 503.252 144.732 502.421 136.413C501.559 127.779 494.23 111.939 489.623 106.286C483.554 98.8381 477.621 91.1161 470.124 85.0621C462.776 79.1261 454.454 74.2681 445.739 70.6271C436.708 66.8551 425.904 64.6711 417.341 63.1671C416.055 56.3071 414.283 51.5241 409.563 43.2701C403.669 32.6701 397.195 27.8821 387.02 20.4321C374.395 11.1891 356.799 1.65408 339.72 0.348078C332.362 -0.213922 321.576 -0.445922 308.012 2.47108C296.218 5.00708 284.592 9.79908 275.752 14.3161C258.002 7.51808 241.419 8.52208 228.337 12.0751C217.304 15.0701 214.95 16.8681 204.856 22.8081C194.946 27.0891 184.18 37.0441 175.844 48.5701C144.793 49.4511 118.946 60.3731 100.544 70.8161C79.614 82.6941 60.831 105.398 53.477 119.84C45.269 135.958 37.071 158.757 43.997 194.016C-1.74499 222.139 2.95901 267.124 28.674 292.242C51.226 314.272 88.587 321.135 123.974 317.566C134.546 328.283 174.54 376.736 174.54 376.736C174.54 376.736 214.825 422.135 200.736 482.822V482.822ZM157.337 294.89C162.811 289.417 167.503 281.597 171.152 275.602C175.293 275.832 183.797 276.39 192.159 276.006C200.543 275.62 209.428 274.382 212.98 272.306C213.977 275.296 220.915 300.064 221.355 315.284C221.933 335.238 221.377 338.775 218.152 345.779C216.396 346.609 214.688 346.971 212.533 346.197C204.856 343.441 192.063 333.854 182.891 325.297C168.686 312.047 157.337 294.89 157.337 294.89V294.89ZM315.464 290.675C315.189 293.099 315.013 301.8 316.184 309.4C317.375 317.119 318.543 324.291 321.454 327.077C331.684 325.234 338.828 318.671 345.003 314.063C345.003 314.063 365.043 298.416 368.914 294.823C365.965 292.15 361.818 285.883 360.344 282.105C360.344 282.105 346.241 286.236 339.144 287.711C330.206 289.646 319.703 290.491 315.464 290.675Z" fill="#58968D"/>
</g>
<defs>
<clipPath id="clip0_256_2202">
<rect width="512" height="512" fill="white"/>
</clipPath>
</defs>
</svg>
